<?xml version="1.0" encoding="UTF-8" standalone="no"?>
<svg
   xmlns:dc="http://purl.org/dc/elements/1.1/"
   xmlns:cc="http://creativecommons.org/ns#"
   xmlns:rdf="http://www.w3.org/1999/02/22-rdf-syntax-ns#"
   xmlns:svg="http://www.w3.org/2000/svg"
   xmlns="http://www.w3.org/2000/svg"
   version="1.1"
   id="svg2"
   viewBox="0 0 136.59096 218.05467"
   height="61.539875mm"
   width="38.549004mm">
  <defs
     id="defs4" />
  <metadata
     id="metadata7">
    <rdf:RDF>
      <cc:Work
         rdf:about="">
        <dc:format>image/svg+xml</dc:format>
        <dc:type
           rdf:resource="http://purl.org/dc/dcmitype/StillImage" />
        <dc:title></dc:title>
      </cc:Work>
    </rdf:RDF>
  </metadata>
  <g
     transform="translate(-61.228516,-337.49019)"
     id="layer1">
    <g
       id="flowRoot3336"
       style="font-style:normal;font-variant:normal;font-weight:normal;font-stretch:normal;font-size:180px;line-height:125%;font-family:'.Geeza Pro Interface';-inkscape-font-specification:'.Geeza Pro Interface';letter-spacing:0px;word-spacing:0px;fill:#000000;fill-opacity:1;stroke:none;stroke-width:1px;stroke-linecap:butt;stroke-linejoin:miter;stroke-opacity:1">
      <path
         id="path3357"
         style="font-style:normal;font-variant:normal;font-weight:normal;font-stretch:normal;font-family:Osaka;-inkscape-font-specification:Osaka"
         d="m 101.30664,473.89644 -40.078124,0 0,-136.40625 37.96875,0 q 32.343754,0 45.703124,11.25 21.79688,17.57812 21.79688,56.25 0,38.67187 -22.5,56.95312 -14.0625,11.95313 -42.89063,11.95313 z m -1.406249,-122.34375 -20.390625,0 0,107.57812 20.390625,0 q 25.312499,0 36.562499,-12.65625 11.25,-11.25 11.25,-40.07812 0,-32.34375 -13.35937,-45.70313 -9.14063,-9.14062 -34.453129,-9.14062 z" />
    </g>
    <flowRoot
       style="font-style:normal;font-weight:normal;font-size:40px;line-height:125%;font-family:sans-serif;letter-spacing:0px;word-spacing:0px;fill:#000000;fill-opacity:1;stroke:none;stroke-width:1px;stroke-linecap:butt;stroke-linejoin:miter;stroke-opacity:1"
       id="flowRoot3348"
       xml:space="preserve"><flowRegion
         id="flowRegion3350"><rect
           y="412.36221"
           x="85.714287"
           height="108.57143"
           width="291.42856"
           id="rect3352" /></flowRegion><flowPara
         id="flowPara3354"></flowPara></flowRoot>    <g
       transform="translate(-115.42857,-134)"
       id="flowRoot3359"
       style="font-style:normal;font-weight:normal;font-size:40px;line-height:125%;font-family:sans-serif;letter-spacing:0px;word-spacing:0px;fill:#000000;fill-opacity:1;stroke:none;stroke-width:1px;stroke-linecap:butt;stroke-linejoin:miter;stroke-opacity:1">
      <path
         id="path3368"
         style="font-style:normal;font-variant:normal;font-weight:normal;font-stretch:normal;font-size:180px;font-family:Osaka;-inkscape-font-specification:Osaka"
         d="m 297.07617,655.79487 16.17188,0 q 0,11.25 -8.4375,21.09375 -11.25,12.65625 -34.45313,12.65625 -26.01562,0 -42.1875,-18.28125 -16.875,-18.28125 -16.875,-54.14062 0,-36.5625 16.875,-54.14063 16.17188,-18.28125 42.1875,-18.28125 22.5,0 33.04688,10.54688 9.84375,11.95312 9.84375,23.20312 l -16.17188,0 q 0,-9.84375 -6.32812,-14.76562 -7.03125,-4.92188 -19.6875,-4.92188 -18.28125,0 -28.82813,11.95313 -12.65625,16.875 -12.65625,46.40625 0,30.23437 12.65625,46.40625 10.54688,12.65625 28.125,12.65625 12.65625,0 20.39063,-5.625 6.32812,-5.625 6.32812,-14.76563 z" />
    </g>
  </g>
</svg>
