<?xml version="1.0" encoding="UTF-8" standalone="no"?>
<!-- Created with Inkscape (http://www.inkscape.org/) -->

<svg
   xmlns:dc="http://purl.org/dc/elements/1.1/"
   xmlns:cc="http://creativecommons.org/ns#"
   xmlns:rdf="http://www.w3.org/1999/02/22-rdf-syntax-ns#"
   xmlns:svg="http://www.w3.org/2000/svg"
   xmlns="http://www.w3.org/2000/svg"
   xmlns:sodipodi="http://sodipodi.sourceforge.net/DTD/sodipodi-0.dtd"
   xmlns:inkscape="http://www.inkscape.org/namespaces/inkscape"
   width="302.75015mm"
   height="39.567207mm"
   viewBox="0 0 1072.7368 140.19877"
   id="svg2"
   version="1.1"
   inkscape:version="0.91 r13725"
   sodipodi:docname="doublecheck.svg">
  <defs
     id="defs4" />
  <sodipodi:namedview
     id="base"
     pagecolor="#ffffff"
     bordercolor="#666666"
     borderopacity="1.0"
     inkscape:pageopacity="0.0"
     inkscape:pageshadow="2"
     inkscape:zoom="0.35"
     inkscape:cx="108.67516"
     inkscape:cy="-646.38014"
     inkscape:document-units="px"
     inkscape:current-layer="layer1"
     showgrid="false"
     inkscape:window-width="1280"
     inkscape:window-height="751"
     inkscape:window-x="0"
     inkscape:window-y="1"
     inkscape:window-maximized="1"
     fit-margin-top="0"
     fit-margin-left="0"
     fit-margin-right="0"
     fit-margin-bottom="0" />
  <metadata
     id="metadata7">
    <rdf:RDF>
      <cc:Work
         rdf:about="">
        <dc:format>image/svg+xml</dc:format>
        <dc:type
           rdf:resource="http://purl.org/dc/dcmitype/StillImage" />
        <dc:title></dc:title>
      </cc:Work>
    </rdf:RDF>
  </metadata>
  <g
     inkscape:label="Layer 1"
     inkscape:groupmode="layer"
     id="layer1"
     transform="translate(-137.1677,-319.26905)">
    <g
       style="font-style:normal;font-weight:normal;font-size:40px;line-height:125%;font-family:sans-serif;letter-spacing:0px;word-spacing:0px;fill:#000000;fill-opacity:1;stroke:none;stroke-width:1px;stroke-linecap:butt;stroke-linejoin:miter;stroke-opacity:1"
       id="text3336">
      <path
         d="m 137.1677,455.21936 0,-132.59627 52.54658,0 q 21.01864,0 36,19.00621 14.75777,18.78261 14.75777,45.61491 0,28.17391 -14.75777,48.07453 -14.98136,19.90062 -36,19.90062 l -52.54658,0 0,0 z m 8.9441,-8.49689 43.60248,0 q 17.21739,0 29.51553,-17.441 12.29814,-17.44099 12.29814,-42.03726 0,-23.25466 -12.29814,-39.57764 -12.29814,-16.32299 -29.51553,-16.32299 l -43.60248,0 0,115.37889 0,0 z"
         style="font-style:normal;font-variant:normal;font-weight:normal;font-stretch:normal;font-size:180px;font-family:'Shree Devanagari 714';-inkscape-font-specification:'Shree Devanagari 714, '"
         id="path3387"
         inkscape:connector-curvature="0" />
      <path
         d="m 300.30405,456.78458 q -20.34782,0 -32.42236,-13.41615 -12.29813,-13.41615 -12.29813,-35.7764 0,-23.03105 12.29813,-37.11801 12.07454,-13.86336 32.42236,-13.86336 20.12423,0 32.42236,13.86336 12.07454,14.08696 12.07454,37.11801 0,22.36025 -12.07454,35.7764 -12.29813,13.41615 -32.42236,13.41615 l 0,0 z m 0,-7.37888 q 16.09938,0 25.93789,-11.40373 9.61491,-11.40373 9.61491,-30.40994 0,-19.67702 -9.61491,-31.30435 -9.83851,-11.85093 -25.93789,-11.85093 -16.32298,0 -25.93788,11.85093 -9.83851,11.62733 -9.83851,31.30435 0,19.00621 9.83851,30.40994 9.6149,11.40373 25.93788,11.40373 l 0,0 z"
         style="font-style:normal;font-variant:normal;font-weight:normal;font-stretch:normal;font-size:180px;font-family:'Shree Devanagari 714';-inkscape-font-specification:'Shree Devanagari 714, '"
         id="path3389"
         inkscape:connector-curvature="0" />
      <path
         d="m 399.09705,457.67899 q -13.41615,0 -23.03106,-8.7205 -9.61491,-8.7205 -9.61491,-21.01863 l 0,-67.97516 8.9441,0 0,67.97516 q 0,9.1677 6.93168,15.87577 6.93168,6.48448 16.77019,6.48448 11.62733,0 20.79503,-8.9441 9.1677,-8.9441 11.62733,-22.58385 l 0,-58.80746 8.9441,0 0,95.25466 -8.9441,0 0,-16.77019 q -4.02485,8.7205 -12.96895,14.08696 -8.72049,5.14286 -19.45341,5.14286 l 0,0 z"
         style="font-style:normal;font-variant:normal;font-weight:normal;font-stretch:normal;font-size:180px;font-family:'Shree Devanagari 714';-inkscape-font-specification:'Shree Devanagari 714, '"
         id="path3391"
         inkscape:connector-curvature="0" />
      <path
         d="m 511.30357,458.5734 q -10.50932,0 -19.67702,-6.03727 -8.9441,-5.81366 -13.63975,-15.87578 l 0,18.55901 -8.9441,0 0,-132.59627 8.9441,0 0,58.80745 q 3.80124,-10.28571 12.96894,-16.77019 9.1677,-6.26087 20.34783,-6.26087 18.78261,0 29.96273,13.63976 11.40373,13.63975 11.40373,36.4472 0,22.80745 -11.40373,36.44721 -11.18012,13.63975 -29.96273,13.63975 l 0,0 z m 0,-7.60249 q 14.98136,0 24.14907,-11.62733 8.9441,-11.62733 8.9441,-30.85714 0,-19.22981 -8.9441,-30.85714 -9.16771,-11.62733 -24.14907,-11.62733 -13.86336,0 -23.47826,12.52174 -9.83851,12.29813 -9.83851,29.96273 0,17.6646 9.83851,29.96273 9.6149,12.52174 23.47826,12.52174 l 0,0 z"
         style="font-style:normal;font-variant:normal;font-weight:normal;font-stretch:normal;font-size:180px;font-family:'Shree Devanagari 714';-inkscape-font-specification:'Shree Devanagari 714, '"
         id="path3393"
         inkscape:connector-curvature="0" />
      <path
         d="m 584.51024,455.21936 -8.9441,0 0,-132.59627 8.9441,0 0,132.59627 0,0 z"
         style="font-style:normal;font-variant:normal;font-weight:normal;font-stretch:normal;font-size:180px;font-family:'Shree Devanagari 714';-inkscape-font-specification:'Shree Devanagari 714, '"
         id="path3395"
         inkscape:connector-curvature="0" />
      <path
         d="m 649.85413,458.5734 q -19.22981,0 -30.85714,-13.86336 -11.62733,-14.08695 -11.62733,-37.11801 0,-23.03105 11.62733,-37.11801 11.62733,-13.86336 30.85714,-13.86336 19.22981,0 30.85714,12.74535 11.62733,12.74534 11.62733,33.98757 l 0,4.24845 -76.02484,0 q 0,19.45342 9.1677,31.08075 9.1677,11.62733 24.37267,11.62733 11.40373,0 20.57143,-6.03727 9.3913,-6.26087 12.96894,-16.32298 l 8.9441,0 q -2.23602,13.19254 -14.31056,21.91304 -12.07453,8.7205 -28.17391,8.7205 l 0,0 z m -33.54037,-59.47826 67.08074,0 0,-3.35404 q -1.11801,-13.19255 -10.73292,-22.36025 -9.8385,-8.9441 -22.80745,-8.9441 -12.96894,0 -22.58385,9.1677 -9.83851,9.39131 -10.95652,23.03106 l 0,2.45963 0,0 z"
         style="font-style:normal;font-variant:normal;font-weight:normal;font-stretch:normal;font-size:180px;font-family:'Shree Devanagari 714';-inkscape-font-specification:'Shree Devanagari 714, '"
         id="path3397"
         inkscape:connector-curvature="0" />
      <path
         d="m 766.59603,458.5734 q -25.26708,0 -42.93168,-20.34783 -17.8882,-20.34782 -17.8882,-49.19255 0,-28.84472 17.8882,-49.41614 17.6646,-20.34783 42.93168,-20.34783 20.79503,0 35.10559,11.18012 14.31056,10.95653 17.66459,29.51553 l -8.9441,0 q -2.45962,-13.86335 -14.98136,-23.03105 -12.29814,-9.16771 -28.84472,-9.16771 -21.46584,0 -36.67081,17.8882 -15.20497,18.1118 -15.20497,43.37888 0,25.26709 15.20497,43.37889 15.20497,17.8882 36.67081,17.8882 18.3354,0 30.18633,-10.73292 12.07454,-10.73292 13.63975,-28.62112 l 8.9441,0 q -1.78882,21.68944 -16.32298,34.65838 -14.31056,12.96895 -36.4472,12.96895 l 0,0 z"
         style="font-style:normal;font-variant:normal;font-weight:normal;font-stretch:normal;font-size:180px;font-family:'Shree Devanagari 714';-inkscape-font-specification:'Shree Devanagari 714, '"
         id="path3399"
         inkscape:connector-curvature="0" />
      <path
         d="m 846.77586,455.21936 -8.9441,0 0,-132.59627 8.9441,0 0,55.22981 q 4.47205,-9.61491 13.41615,-15.42857 8.7205,-5.81367 19.00621,-5.81367 13.41615,0 23.03106,10.06212 9.6149,9.83851 9.6149,23.92546 l 0,64.62112 -8.9441,0 0,-62.8323 q 0,-11.62733 -6.93167,-19.67702 -6.93168,-8.27329 -16.77019,-8.27329 -10.95652,0 -19.90062,8.04969 -9.1677,7.82609 -12.52174,20.57143 l 0,62.16149 0,0 z"
         style="font-style:normal;font-variant:normal;font-weight:normal;font-stretch:normal;font-size:180px;font-family:'Shree Devanagari 714';-inkscape-font-specification:'Shree Devanagari 714, '"
         id="path3401"
         inkscape:connector-curvature="0" />
      <path
         d="m 975.75257,458.5734 q -19.22982,0 -30.85714,-13.86336 -11.62733,-14.08695 -11.62733,-37.11801 0,-23.03105 11.62733,-37.11801 11.62732,-13.86336 30.85714,-13.86336 19.22981,0 30.85713,12.74535 11.6273,12.74534 11.6273,33.98757 l 0,4.24845 -76.0248,0 q 0,19.45342 9.1677,31.08075 9.1677,11.62733 24.37267,11.62733 11.40373,0 20.57143,-6.03727 9.3913,-6.26087 12.9689,-16.32298 l 8.9441,0 q -2.236,13.19254 -14.3105,21.91304 -12.07455,8.7205 -28.17393,8.7205 l 0,0 z m -33.54037,-59.47826 67.0807,0 0,-3.35404 q -1.118,-13.19255 -10.73288,-22.36025 -9.83851,-8.9441 -22.80745,-8.9441 -12.96895,0 -22.58385,9.1677 -9.83851,9.39131 -10.95652,23.03106 l 0,2.45963 0,0 z"
         style="font-style:normal;font-variant:normal;font-weight:normal;font-stretch:normal;font-size:180px;font-family:'Shree Devanagari 714';-inkscape-font-specification:'Shree Devanagari 714, '"
         id="path3403"
         inkscape:connector-curvature="0" />
      <path
         d="m 1077.9603,459.46781 q -18.7826,0 -31.9752,-15.20497 -13.1925,-15.20497 -13.1925,-36.67081 0,-21.01863 13.1925,-36 13.1926,-14.98137 31.9752,-14.98137 15.4286,0 26.3851,9.16771 10.9565,9.3913 10.9565,22.36025 l -8.9441,0 q 0,-9.39131 -8.2733,-16.09938 -8.2733,-6.70808 -20.1242,-6.70808 -14.9814,0 -25.7143,12.29814 -10.5093,12.52174 -10.5093,29.96273 0,17.8882 10.5093,30.63354 10.7329,12.74534 25.7143,12.74534 11.6273,0 19.677,-6.93167 8.2733,-6.93168 8.2733,-16.54659 l 9.3913,0 q 0,13.19255 -10.9565,22.58385 -10.9565,9.39131 -26.3851,9.39131 l 0,0 z"
         style="font-style:normal;font-variant:normal;font-weight:normal;font-stretch:normal;font-size:180px;font-family:'Shree Devanagari 714';-inkscape-font-specification:'Shree Devanagari 714, '"
         id="path3405"
         inkscape:connector-curvature="0" />
      <path
         d="m 1143.4946,455.21936 -8.9441,0 0,-132.59627 8.9441,0 0,86.75776 50.9814,-49.41615 11.1801,0 -36.6708,34.88199 40.9192,60.37267 -9.3913,0 -37.3416,-54.3354 -19.677,18.78261 0,35.55279 0,0 z"
         style="font-style:normal;font-variant:normal;font-weight:normal;font-stretch:normal;font-size:180px;font-family:'Shree Devanagari 714';-inkscape-font-specification:'Shree Devanagari 714, '"
         id="path3407"
         inkscape:connector-curvature="0" />
    </g>
  </g>
</svg>
