<?xml version="1.0" encoding="UTF-8" standalone="no"?>
<!-- Created with Inkscape (http://www.inkscape.org/) -->

<svg
   xmlns:dc="http://purl.org/dc/elements/1.1/"
   xmlns:cc="http://creativecommons.org/ns#"
   xmlns:rdf="http://www.w3.org/1999/02/22-rdf-syntax-ns#"
   xmlns:svg="http://www.w3.org/2000/svg"
   xmlns="http://www.w3.org/2000/svg"
   xmlns:sodipodi="http://sodipodi.sourceforge.net/DTD/sodipodi-0.dtd"
   xmlns:inkscape="http://www.inkscape.org/namespaces/inkscape"
   width="203.77827mm"
   height="34.417793mm"
   viewBox="0 0 722.049 121.95281"
   id="svg2"
   version="1.1"
   inkscape:version="0.91 r13725"
   sodipodi:docname="doublecheck-cursive.svg">
  <defs
     id="defs4" />
  <sodipodi:namedview
     id="base"
     pagecolor="#ffffff"
     bordercolor="#666666"
     borderopacity="1.0"
     inkscape:pageopacity="0.0"
     inkscape:pageshadow="2"
     inkscape:zoom="1.4"
     inkscape:cx="174.12904"
     inkscape:cy="81.918464"
     inkscape:document-units="px"
     inkscape:current-layer="layer1"
     showgrid="false"
     inkscape:window-width="1280"
     inkscape:window-height="751"
     inkscape:window-x="0"
     inkscape:window-y="1"
     inkscape:window-maximized="1"
     fit-margin-top="0"
     fit-margin-left="0"
     fit-margin-right="0"
     fit-margin-bottom="0" />
  <metadata
     id="metadata7">
    <rdf:RDF>
      <cc:Work
         rdf:about="">
        <dc:format>image/svg+xml</dc:format>
        <dc:type
           rdf:resource="http://purl.org/dc/dcmitype/StillImage" />
        <dc:title />
      </cc:Work>
    </rdf:RDF>
  </metadata>
  <g
     inkscape:label="Layer 1"
     inkscape:groupmode="layer"
     id="layer1"
     transform="translate(-125.2604,-336.32655)">
    <g
       style="font-style:normal;font-variant:normal;font-weight:normal;font-stretch:normal;font-size:40px;line-height:125%;font-family:SignPainter;-inkscape-font-specification:SignPainter;letter-spacing:0px;word-spacing:0px;fill:#ffffff;fill-opacity:0;stroke:#ffffff;stroke-width:2.5;stroke-linecap:butt;stroke-linejoin:miter;stroke-opacity:1;stroke-miterlimit:4;stroke-dasharray:none"
       id="text3336">
      <path
         d="m 160.65714,365.03936 c -12.42,18.54 -27.36,46.62 -32.94,63.54 -3.78,11.7 -2.88,14.4 0.54,19.08 2.52,3.6 5.4,5.94 7.56,7.74 3.06,2.52 6.3,3.06 11.52,1.26 48.24,-16.02 80.28,-68.58 63.72,-97.38 -6.66,-11.7 -15.66,-17.64 -27.18,-15.84 -11.7,1.8 -20.7,9 -33.12,10.62 -2.34,0.36 -2.52,1.44 -1.8,3.42 1.08,2.7 4.68,7.2 11.7,7.56 z m 9.54,-1.8 c 12.6,-4.14 25.74,-13.68 32.04,-3.6 10.62,16.92 -12.06,68.4 -61.2,87.12 -5.4,1.98 -6.66,-0.54 -4.32,-8.1 5.22,-16.56 19.8,-40.5 28.8,-56.52 4.5,-7.92 5.58,-14.4 4.68,-18.9 z"
         style="font-style:normal;font-variant:normal;font-weight:normal;font-stretch:normal;font-size:180px;font-family:SignPainter;-inkscape-font-specification:SignPainter;stroke:#ffffff;stroke-opacity:1;fill:#ffffff;stroke-width:2.5;stroke-miterlimit:4;stroke-dasharray:none;fill-opacity:0"
         id="path3410"
         inkscape:connector-curvature="0" />
      <path
         d="m 351.89308,439.01936 c 2.52,-4.86 2.52,-9.54 1.62,-11.16 -0.9,-1.62 -2.34,-1.44 -3.24,0.18 -6.84,12.6 -16.2,24.48 -23.58,24.84 -6.48,0.36 -7.2,-7.02 -2.52,-17.46 4.14,-9.36 12.96,-22.5 16.92,-30.6 4.32,-9 2.88,-16.74 0.18,-19.98 -1.44,-1.62 -2.88,-1.26 -4.5,1.08 -5.58,7.74 -10.8,20.16 -21.96,38.34 -9.54,15.66 -19.62,27.9 -26.64,27.36 -3.96,-0.36 -4.5,-6.66 -0.9,-15.48 3.42,-8.46 7.56,-15.66 14.04,-26.28 6.48,-10.62 7.38,-18.18 3.42,-24.12 -1.44,-1.62 -3.06,-1.8 -4.5,0.18 -2.16,3.06 -5.04,7.02 -6.84,9.9 -6.12,9.9 -16.02,18.36 -26.28,18.54 0.18,-1.44 0.36,-2.52 0.36,-3.6 0.9,-13.32 -4.14,-14.4 -8.46,-19.8 -3.78,-4.86 -6.84,-6.48 -12.24,-6.12 -10.8,0.72 -21.96,10.8 -28.8,23.22 -7.92,14.4 -10.62,29.88 -2.7,40.5 7.02,9.36 16.2,10.08 22.86,7.92 12.78,-4.32 23.76,-22.14 27.9,-37.26 5.58,0.54 11.16,-0.9 16.2,-3.24 -3.06,5.58 -5.4,10.98 -6.84,15.48 -3.96,11.88 -3.6,25.02 9.18,26.1 10.26,0.9 19.44,-8.64 25.74,-16.92 -1.44,10.44 3.06,17.64 14.76,17.64 10.62,0 21.6,-9 26.82,-19.26 z m -94.86,-41.04 c 0.36,3.06 0.18,7.56 -1.26,12.78 -3.24,-2.88 -4.68,-7.38 -4.14,-12.24 0.54,-5.04 4.68,-6.3 5.4,-0.54 z m -2.52,18 c -1.62,4.5 -3.42,9.36 -6.3,14.58 -9,16.38 -20.16,22.86 -24.84,18.72 -4.68,-4.14 -2.16,-20.52 5.4,-34.02 3.96,-7.02 9.36,-13.14 14.04,-17.1 0,7.38 5.58,14.4 11.7,17.82 z"
         style="font-style:normal;font-variant:normal;font-weight:normal;font-stretch:normal;font-size:180px;font-family:SignPainter;-inkscape-font-specification:SignPainter;stroke:#ffffff;stroke-opacity:1;fill:#ffffff;stroke-width:2.5;stroke-miterlimit:4;stroke-dasharray:none;fill-opacity:0"
         id="path3412"
         inkscape:connector-curvature="0" />
      <path
         d="m 402.61089,428.03936 c 9.9,-21.96 9.18,-43.2 -6.12,-43.2 -4.68,0 -10.26,2.88 -15.48,7.56 5.58,-9.9 13.32,-22.32 16.02,-27.36 7.38,-13.5 7.38,-21.6 4.68,-26.64 -1.44,-2.52 -2.88,-2.52 -4.5,-0.18 -12.42,17.28 -47.7,83.88 -52.56,98.82 -3.6,10.98 -1.8,16.2 0.9,19.8 1.08,1.44 2.16,1.26 2.88,-0.54 1.62,-3.78 3.6,-8.1 5.22,-11.88 3.24,7.92 9.36,12.78 18.9,12.78 10.44,0 21.6,-10.26 30.06,-29.16 z m -8.82,-35.82 c 4.14,0.36 6.3,11.34 -3.96,31.68 -10.44,20.88 -18.72,26.28 -25.02,24.84 -4.86,-1.08 -7.2,-6.84 -7.56,-12.06 6.66,-13.86 15.3,-28.8 23.4,-37.26 5.4,-5.58 9.36,-7.56 13.14,-7.2 z"
         style="font-style:normal;font-variant:normal;font-weight:normal;font-stretch:normal;font-size:180px;font-family:SignPainter;-inkscape-font-specification:SignPainter;stroke:#ffffff;stroke-opacity:1;fill:#ffffff;stroke-width:2.5;stroke-miterlimit:4;stroke-dasharray:none;fill-opacity:0"
         id="path3414"
         inkscape:connector-curvature="0" />
      <path
         d="m 427.37214,419.21936 c 16.02,-10.44 36.18,-32.04 41.76,-54.18 2.16,-8.46 1.08,-15.12 -4.14,-19.8 -2.52,-2.34 -5.04,-1.98 -7.74,0.9 -18.36,19.08 -38.88,51.66 -45.54,82.98 -4.14,19.44 2.52,28.08 14.94,28.44 14.4,0.36 27.54,-14.58 30.06,-19.98 1.98,-4.32 2.7,-8.28 1.8,-11.16 -0.72,-2.52 -2.7,-2.34 -3.96,0 -7.02,13.86 -19.62,26.82 -28.26,26.1 -8.1,-0.72 -6.12,-15.66 1.08,-33.3 z m 3.24,-7.74 c 1.26,-2.88 2.7,-5.76 4.32,-8.64 12.42,-23.04 25.74,-43.02 28.08,-41.58 2.34,1.44 -7.74,30.24 -32.4,50.22 z"
         style="font-style:normal;font-variant:normal;font-weight:normal;font-stretch:normal;font-size:180px;font-family:SignPainter;-inkscape-font-specification:SignPainter;stroke:#ffffff;stroke-opacity:1;fill:#ffffff;stroke-width:2.5;stroke-miterlimit:4;stroke-dasharray:none;fill-opacity:0"
         id="path3416"
         inkscape:connector-curvature="0" />
      <path
         d="m 467.77651,424.43936 c 12.6,10.26 24.66,5.58 33.48,-5.22 7.56,-9.18 9,-20.16 5.76,-24.48 -2.88,-3.96 -6.12,-6.66 -10.62,-9.36 -9,-5.22 -27.36,4.14 -39.06,27.36 -11.7,23.22 -3.78,45.72 19.08,45.36 13.86,-0.18 27.72,-8.46 35.28,-19.44 3.24,-4.68 3.78,-9.72 3.06,-11.16 -0.72,-1.62 -2.16,-1.62 -3.06,-0.18 -7.74,11.88 -20.88,26.28 -35.82,25.56 -9.54,-0.54 -13.86,-11.88 -8.1,-28.44 z m 1.62,-3.96 c 0.36,-0.9 0.9,-1.98 1.44,-3.06 8.46,-17.1 23.4,-27.9 27.18,-24.84 2.52,1.98 -1.44,11.34 -7.2,18.9 -5.22,6.84 -12.6,14.58 -21.42,9 z"
         style="font-style:normal;font-variant:normal;font-weight:normal;font-stretch:normal;font-size:180px;font-family:SignPainter;-inkscape-font-specification:SignPainter;stroke:#ffffff;stroke-opacity:1;fill:#ffffff;stroke-width:2.5;stroke-miterlimit:4;stroke-dasharray:none;fill-opacity:0"
         id="path3418"
         inkscape:connector-curvature="0" />
      <path
         d="m 578.71276,418.13936 c -13.68,26.82 -32.76,38.88 -44.28,29.52 -8.82,-7.2 -10.62,-33.84 5.22,-60.12 16.2,-26.82 43.56,-41.4 48.6,-36 4.14,4.32 -2.34,14.58 -5.22,24.12 -2.7,9 0.18,14.58 4.32,17.28 2.16,1.44 3.42,0.36 3.96,-1.08 1.98,-5.22 4.5,-12.24 7.2,-17.82 2.7,-5.58 3.24,-10.62 1.62,-15.84 -1.44,-4.5 -5.58,-9.72 -9.54,-13.14 -5.76,-5.04 -14.58,-4.32 -24.3,-0.54 -20.16,7.74 -52.2,40.32 -51.48,78.48 0.36,14.76 7.38,25.92 15.48,30.24 9.72,5.22 24.84,5.4 37.62,-3.78 7.56,-5.4 19.08,-18.9 14.58,-30.96 -0.9,-2.34 -2.88,-2.34 -3.78,-0.36 z"
         style="font-style:normal;font-variant:normal;font-weight:normal;font-stretch:normal;font-size:180px;font-family:SignPainter;-inkscape-font-specification:SignPainter;stroke:#ffffff;stroke-opacity:1;fill:#ffffff;stroke-width:2.5;stroke-miterlimit:4;stroke-dasharray:none;fill-opacity:0"
         id="path3420"
         inkscape:connector-curvature="0" />
      <path
         d="m 663.66151,438.83936 c 2.7,-5.4 2.7,-9.18 1.8,-11.16 -0.72,-1.44 -2.52,-1.44 -3.24,0.18 -5.58,11.52 -15.48,24.48 -22.86,24.84 -6.66,0.36 -7.56,-8.1 -3.06,-18.54 4.14,-9.36 12.78,-22.5 16.74,-30.42 4.68,-9.18 -0.9,-18.18 -7.02,-18.9 -4.86,-0.54 -14.22,5.4 -21.6,12.6 7.74,-12.06 17.28,-26.64 21.6,-33.84 6.84,-11.34 7.38,-20.34 5.04,-25.56 -0.9,-2.16 -2.7,-2.34 -4.32,-0.18 -14.58,18.18 -52.02,81.54 -58.32,99.54 -3.78,10.8 -2.16,15.84 0.72,19.08 1.08,1.26 2.34,0.9 3.06,-0.72 4.32,-10.98 10.98,-23.58 17.46,-34.2 10.44,-17.1 30.06,-29.34 32.58,-27.9 2.88,1.62 -12.78,20.34 -18.72,37.8 -5.4,15.66 -1.62,26.64 13.5,26.64 10.62,0 21.6,-9 26.64,-19.26 z"
         style="font-style:normal;font-variant:normal;font-weight:normal;font-stretch:normal;font-size:180px;font-family:SignPainter;-inkscape-font-specification:SignPainter;stroke:#ffffff;stroke-opacity:1;fill:#ffffff;stroke-width:2.5;stroke-miterlimit:4;stroke-dasharray:none;fill-opacity:0"
         id="path3422"
         inkscape:connector-curvature="0" />
      <path
         d="m 676.25308,424.43936 c 12.6,10.26 24.66,5.58 33.48,-5.22 7.56,-9.18 9,-20.16 5.76,-24.48 -2.88,-3.96 -6.12,-6.66 -10.62,-9.36 -9,-5.22 -27.36,4.14 -39.06,27.36 -11.7,23.22 -3.78,45.72 19.08,45.36 13.86,-0.18 27.72,-8.46 35.28,-19.44 3.24,-4.68 3.78,-9.72 3.06,-11.16 -0.72,-1.62 -2.16,-1.62 -3.06,-0.18 -7.74,11.88 -20.88,26.28 -35.82,25.56 -9.54,-0.54 -13.86,-11.88 -8.1,-28.44 z m 1.62,-3.96 c 0.36,-0.9 0.9,-1.98 1.44,-3.06 8.46,-17.1 23.4,-27.9 27.18,-24.84 2.52,1.98 -1.44,11.34 -7.2,18.9 -5.22,6.84 -12.6,14.58 -21.42,9 z"
         style="font-style:normal;font-variant:normal;font-weight:normal;font-stretch:normal;font-size:180px;font-family:SignPainter;-inkscape-font-specification:SignPainter;stroke:#ffffff;stroke-opacity:1;fill:#ffffff;stroke-width:2.5;stroke-miterlimit:4;stroke-dasharray:none;fill-opacity:0"
         id="path3424"
         inkscape:connector-curvature="0" />
      <path
         d="m 761.80933,385.73936 c -9,-5.4 -27.18,4.32 -38.7,27 -11.7,23.22 -3.96,45.54 18.9,45.18 13.68,-0.18 27.9,-9 34.74,-19.62 3.06,-4.86 3.78,-9.36 3.24,-10.8 -0.72,-1.8 -2.34,-1.62 -3.24,-0.18 -7.38,11.34 -20.34,25.74 -35.46,25.56 -10.62,-0.18 -14.4,-15.12 -4.5,-35.46 8.1,-16.38 21.6,-27.9 24.66,-25.38 2.52,1.98 -2.88,9.72 -4.86,16.2 -2.52,8.1 0,13.5 4.32,15.66 2.34,1.26 3.06,0.72 3.78,-1.44 3.6,-9.72 10.8,-19.26 7.02,-26.82 -2.16,-4.14 -5.04,-7.02 -9.9,-9.9 z"
         style="font-style:normal;font-variant:normal;font-weight:normal;font-stretch:normal;font-size:180px;font-family:SignPainter;-inkscape-font-specification:SignPainter;stroke:#ffffff;stroke-opacity:1;fill:#ffffff;stroke-width:2.5;stroke-miterlimit:4;stroke-dasharray:none;fill-opacity:0"
         id="path3426"
         inkscape:connector-curvature="0" />
      <path
         d="m 806.00776,392.75936 c 4.86,-8.82 11.88,-21.42 16.2,-28.8 7.56,-13.14 7.92,-20.34 5.22,-25.74 -1.08,-2.16 -2.88,-1.98 -4.5,0.18 -16.02,21.78 -45.9,81 -50.94,97.38 -3.42,10.98 -2.52,16.74 0.18,19.8 1.26,1.44 2.7,1.08 3.24,-0.36 13.86,-33.12 21.96,-48.96 35.46,-59.22 9.54,-7.38 17.46,-9.36 19.44,-6.12 2.7,4.68 -9.18,20.34 -31.5,27.72 -3.42,1.08 -3.78,1.62 -3.78,4.86 -0.36,24.3 10.26,34.56 22.86,34.74 14.22,0.18 22.5,-11.34 26.82,-18.9 2.7,-4.5 3.06,-8.82 2.16,-10.98 -0.9,-2.16 -2.52,-1.98 -3.6,0.18 -5.4,11.16 -15.3,25.02 -22.68,24.3 -6.84,-0.72 -11.88,-10.98 -12.6,-25.74 11.34,-3.42 18.9,-8.64 25.02,-14.58 6.66,-6.48 7.2,-14.04 3.78,-21.06 -3.6,-7.56 -7.92,-10.26 -14.76,-7.92 -4.68,1.62 -10.26,4.68 -16.02,10.26 z"
         style="font-style:normal;font-variant:normal;font-weight:normal;font-stretch:normal;font-size:180px;font-family:SignPainter;-inkscape-font-specification:SignPainter;stroke:#ffffff;stroke-opacity:1;fill:#ffffff;stroke-width:2.5;stroke-miterlimit:4;stroke-dasharray:none;fill-opacity:0"
         id="path3428"
         inkscape:connector-curvature="0" />
    </g>
  </g>
</svg>
