<?xml version="1.0" encoding="UTF-8" standalone="no"?>
<svg
   xmlns:dc="http://purl.org/dc/elements/1.1/"
   xmlns:cc="http://creativecommons.org/ns#"
   xmlns:rdf="http://www.w3.org/1999/02/22-rdf-syntax-ns#"
   xmlns:svg="http://www.w3.org/2000/svg"
   xmlns="http://www.w3.org/2000/svg"
   version="1.1"
   id="svg2"
   viewBox="0 0 807.06096 242.03078"
   height="68.306465mm"
   width="227.77054mm">
  <defs
     id="defs4" />
  <metadata
     id="metadata7">
    <rdf:RDF>
      <cc:Work
         rdf:about="">
        <dc:format>image/svg+xml</dc:format>
        <dc:type
           rdf:resource="http://purl.org/dc/dcmitype/StillImage" />
        <dc:title></dc:title>
      </cc:Work>
    </rdf:RDF>
  </metadata>
  <g
     transform="translate(1069.5272,-29.650978)"
     id="layer1">
    <flowRoot
       style="font-style:normal;font-weight:normal;font-size:180px;line-height:125%;font-family:sans-serif;letter-spacing:0px;word-spacing:0px;fill:#000000;fill-opacity:1;stroke:none;stroke-width:1px;stroke-linecap:butt;stroke-linejoin:miter;stroke-opacity:1"
       id="flowRoot4136"
       xml:space="preserve"><flowRegion
         id="flowRegion4138"><rect
           y="178.07649"
           x="-1117.1428"
           height="617.14288"
           width="1011.4286"
           id="rect4140" /></flowRegion><flowPara
         id="flowPara4142" /></flowRoot>    <g
       id="flowRoot4144"
       style="font-style:normal;font-variant:normal;font-weight:normal;font-stretch:normal;font-size:180px;line-height:125%;font-family:'.Savoye LET CC.';-inkscape-font-specification:'.Savoye LET CC., Normal';text-align:start;letter-spacing:0px;word-spacing:0px;writing-mode:lr-tb;text-anchor:start;fill:#ffffff;fill-opacity:1;stroke:#ffffff;stroke-width:1px;stroke-linecap:butt;stroke-linejoin:miter;stroke-opacity:1">
      <path
         id="path4153"
         style="stroke:#ffffff;stroke-opacity:1;fill:#ffffff;fill-opacity:1"
         d="m -916.11181,216.98944 -13.29231,0 29.21539,-139.707692 0.96923,-4.846154 q 0.96923,-5.123077 0.96923,-7.061539 0,-2.630769 -1.38462,-4.292307 -1.38461,-1.8 -3.87692,-1.8 -3.87692,0 -8.72308,4.707692 -4.84615,4.707692 -12.18461,15.784615 -11.35385,16.892308 -24.78462,46.938465 -10.52307,23.67692 -18,46.10769 -7.33846,22.29231 -12.04615,44.16923 l -11.49231,0 32.12308,-150.369231 q 1.52308,-7.061538 1.52308,-11.076923 0,-1.8 -0.69231,-3.461538 -0.69231,-1.661539 -1.93846,-2.492308 -1.1077,-0.830769 -2.63077,-0.830769 -6.5077,0 -15.92308,12.738461 -9.41538,12.6 -22.29226,39.323078 -6.0924,12.04615 -11.7693,25.2 -5.6769,13.15385 -10.1077,24.50769 -4.4307,11.35385 -9.9692,27.69231 -8.0308,23.81538 -11.6308,38.76923 l -11.6307,0 0.4153,-1.93846 5.9539,-23.67692 q 3.1846,-13.56924 5.5385,-24.09231 10.9384,-49.56923 16.0615,-81.000002 4.2923,-24.646154 4.2923,-35.584616 0,-8.030769 -2.4923,-12.323077 -2.3539,-4.430769 -6.6462,-4.430769 -10.523,0 -18.6923,27.969231 -5.123,17.584615 -7.8923,37.938461 l -10.3846,-6.784615 q 2.3539,-17.861538 7.7539,-32.261538 5.5384,-14.4 13.0153,-22.707693 7.6154,-8.446154 15.3693,-8.446154 8.8615,0 13.8461,9.415385 5.1231,9.415385 5.1231,25.753846 0,13.707693 -2.4923,31.153846 -0.6923,5.123075 -4.4308,26.030765 l -5.5384,30.18462 0.8307,-2.63077 q 9.9693,-27.13846 28.93849,-63.96923 11.90769,-22.846154 22.01539,-34.476923 10.24615,-11.769231 18.55384,-11.769231 5.26154,0 8.72308,4.153846 3.46154,4.015385 3.46154,10.384616 0,6.507692 -2.63077,18.830769 l -16.06154,76.707693 q 1.8,-5.12308 8.30769,-19.66154 18.96923,-42.092307 32.4,-60.646153 13.43077,-18.692308 24.78462,-18.692308 5.67692,0 9,4.015385 3.46154,3.876923 3.46154,10.384615 0,5.261539 -2.35385,15.923077 l -28.66154,136.246154 z" />
      <path
         id="path4155"
         style="stroke:#ffffff;stroke-opacity:1;fill:#ffffff;fill-opacity:1"
         d="m -896.68068,266.14329 6.78462,-9.13847 q 8.03077,8.58462 18.13846,8.58462 10.66154,0 17.16923,-8.44615 6.50769,-8.44616 10.66154,-27.69231 l 6.36923,-28.66154 q -15.23077,17.86154 -27.55385,17.86154 -7.2,0 -11.35384,-4.43077 -4.01539,-4.43077 -4.01539,-11.90769 0,-4.98462 1.24615,-10.93846 l 9.41539,-49.7077 13.43077,-5.67692 -13.43077,55.8 q -1.66154,6.78462 -1.66154,10.10769 0,4.70769 2.76923,7.75385 2.90769,2.90769 7.61539,2.90769 5.12307,0 11.21538,-4.43077 6.23077,-4.56923 13.84615,-13.56923 l 11.9077,-52.89231 13.01538,-5.67692 -20.21538,81.41538 q -3.6,14.67693 -6.92308,22.98462 -3.18462,8.30769 -7.47692,13.84615 -13.56923,17.44616 -33.09231,17.44616 -11.35385,0 -17.86154,-5.53846 z" />
      <path
         id="path4157"
         style="stroke:#ffffff;stroke-opacity:1;fill:#ffffff;fill-opacity:1"
         d="m -629.69546,186.80482 -3.32308,16.47693 q -17.58462,8.30769 -34.61538,12.73846 -16.89231,4.43077 -30.73847,4.43077 -15.23077,0 -26.44615,-4.29231 -11.21538,-4.43077 -17.30769,-12.73846 -5.95385,-8.30769 -5.95385,-19.52308 0,-18.69231 16.89231,-37.10769 16.89231,-18.55385 48.18461,-34.2 -14.95384,-2.49231 -14.95384,-15.507692 0,-18.553846 32.12308,-41.676923 9.96923,-7.2 20.21538,-12.6 10.38462,-5.538462 19.38462,-8.446154 9.13846,-2.907693 16.06153,-2.907693 7.2,0 11.21539,4.015385 4.15384,3.876923 4.15384,10.661539 0,6.230769 -3.18461,14.261538 -3.04615,8.030769 -9,16.753846 -5.95385,8.723077 -13.29231,15.784616 l -7.33846,-8.03077 q 21.6,-23.815384 21.6,-37.938461 0,-9.553846 -11.35385,-9.553846 -7.2,0 -17.72307,4.292307 -10.52308,4.292308 -20.9077,11.492308 -13.84615,9.415385 -22.01538,20.076923 -8.03077,10.661539 -8.03077,18.969231 0,4.015384 2.49231,7.615384 2.63077,3.600002 6.36923,5.123082 3.87692,1.38461 13.43077,1.8 l 2.35384,0 -1.8,8.86153 q -20.90769,9 -41.95384,24.5077 -34.89231,25.75384 -34.89231,48.46153 0,11.35385 8.72308,18.55385 8.86154,7.06154 22.56923,7.06154 9.55384,0 21.04615,-2.90769 11.63077,-2.9077 25.75385,-8.86154 14.12308,-5.95385 32.26154,-15.64616 z" />
      <path
         id="path4159"
         style="stroke:#ffffff;stroke-opacity:1;fill:#ffffff;fill-opacity:1"
         d="m -617.40267,208.1279 7.75384,-9.13846 q 6.09231,14.4 19.38462,14.4 6.92307,0 11.76923,-4.43077 4.98461,-4.56923 4.98461,-10.52308 0,-4.2923 -2.35384,-7.33846 -2.35385,-3.04615 -11.21539,-10.24615 -8.16923,-6.64616 -11.07692,-10.38462 -2.76923,-3.87692 -2.76923,-8.86154 0,-6.50769 3.73846,-12.04615 3.87692,-5.53846 10.24615,-8.86154 6.36923,-3.46154 13.43077,-3.46154 6.23077,0 10.38462,3.18462 4.29231,3.04615 4.29231,7.89231 0,6.36923 -5.4,8.72307 -0.83077,-6.50769 -4.98462,-10.10769 -4.01538,-3.73846 -10.38461,-3.73846 -5.67693,0 -9.96924,3.73846 -4.15384,3.6 -4.15384,8.30769 0,5.81539 7.2,11.49231 l 8.03077,6.50769 q 11.76923,9.27693 11.76923,18.96923 0,7.2 -4.15385,13.56924 -4.01538,6.23076 -11.07692,9.96923 -6.92308,3.73846 -14.67692,3.73846 -12.32308,0 -20.76923,-11.35385 z" />
      <path
         id="path4161"
         style="stroke:#ffffff;stroke-opacity:1;fill:#ffffff;fill-opacity:1"
         d="m -556.93392,208.1279 7.75384,-9.13846 q 6.09231,14.4 19.38462,14.4 6.92307,0 11.76923,-4.43077 4.98461,-4.56923 4.98461,-10.52308 0,-4.2923 -2.35384,-7.33846 -2.35385,-3.04615 -11.21539,-10.24615 -8.16923,-6.64616 -11.07692,-10.38462 -2.76923,-3.87692 -2.76923,-8.86154 0,-6.50769 3.73846,-12.04615 3.87692,-5.53846 10.24615,-8.86154 6.36923,-3.46154 13.43077,-3.46154 6.23077,0 10.38462,3.18462 4.29231,3.04615 4.29231,7.89231 0,6.36923 -5.4,8.72307 -0.83077,-6.50769 -4.98462,-10.10769 -4.01538,-3.73846 -10.38461,-3.73846 -5.67693,0 -9.96924,3.73846 -4.15384,3.6 -4.15384,8.30769 0,5.81539 7.2,11.49231 l 8.03077,6.50769 q 11.76923,9.27693 11.76923,18.96923 0,7.2 -4.15385,13.56924 -4.01538,6.23076 -11.07692,9.96923 -6.92308,3.73846 -14.67692,3.73846 -12.32308,0 -20.76923,-11.35385 z" />
      <path
         id="path4163"
         style="stroke:#ffffff;stroke-opacity:1;fill:#ffffff;fill-opacity:1"
         d="m -410.75748,135.15867 -13.01539,50.67692 q -2.07692,8.3077 -2.07692,13.01539 0,4.15384 1.8,7.2 1.8,3.04615 4.43077,3.04615 4.01538,0 13.29231,-9.83077 l 1.93846,1.93846 -1.52308,1.8 q -7.33846,8.44616 -11.35384,11.9077 -3.87693,3.32307 -6.78462,3.32307 -4.43077,0 -7.75385,-4.56923 -3.18461,-4.70769 -3.18461,-10.8 0,-4.43077 3.32308,-20.07692 l 1.10769,-5.26154 q -5.12308,11.90769 -13.70769,22.84616 -14.4,18.27692 -27.55385,18.27692 -7.89231,0 -12.46154,-5.67692 -4.56923,-5.67693 -4.56923,-15.23077 0,-13.01539 7.33846,-27.27693 7.47692,-14.26154 18.41539,-23.4 11.07692,-9.27692 21.46153,-9.27692 10.93847,0 16.33847,8.03077 l 1.52307,-5.26154 13.01539,-5.4 z m -15.92308,17.72308 q -1.66154,-5.26154 -5.67692,-8.16923 -3.87693,-3.04616 -9,-3.04616 -6.09231,0 -12.87693,5.67693 -6.78461,5.53846 -12.46153,15.50769 -4.43077,7.89231 -7.47693,17.44615 -2.90769,9.55385 -2.90769,15.78462 0,7.06154 2.63077,11.07692 2.76923,4.01539 7.75385,4.01539 6.36923,0 13.2923,-5.95385 6.92308,-5.95385 13.7077,-17.03077 4.15384,-6.36923 6.50769,-12.73846 2.35384,-6.36923 5.26154,-17.72308 l 1.24615,-4.84615 z" />
      <path
         id="path4165"
         style="stroke:#ffffff;stroke-opacity:1;fill:#ffffff;fill-opacity:1"
         d="m -409.06349,266.14329 6.78461,-9.13847 q 8.03077,8.58462 18.13847,8.58462 10.66153,0 17.16923,-8.44615 6.50769,-8.44616 10.66153,-27.69231 l 6.36924,-28.66154 q -15.23077,17.86154 -27.55385,17.86154 -7.2,0 -11.35385,-4.43077 -4.01538,-4.43077 -4.01538,-11.90769 0,-4.98462 1.24615,-10.93846 l 9.41539,-49.7077 13.43077,-5.67692 -13.43077,55.8 q -1.66154,6.78462 -1.66154,10.10769 0,4.70769 2.76923,7.75385 2.90769,2.90769 7.61538,2.90769 5.12308,0 11.21539,-4.43077 6.23077,-4.56923 13.84615,-13.56923 l 11.90769,-52.89231 13.01539,-5.67692 -20.21539,81.41538 q -3.6,14.67693 -6.92307,22.98462 -3.18462,8.30769 -7.47693,13.84615 -13.56923,17.44616 -33.0923,17.44616 -11.35385,0 -17.86154,-5.53846 z" />
      <path
         id="path4167"
         style="stroke:#ffffff;stroke-opacity:1;fill:#ffffff;fill-opacity:1"
         d="m -321.03549,208.1279 7.75385,-9.13846 q 6.09231,14.4 19.38461,14.4 6.92308,0 11.76924,-4.43077 4.98461,-4.56923 4.98461,-10.52308 0,-4.2923 -2.35385,-7.33846 -2.35384,-3.04615 -11.21538,-10.24615 -8.16923,-6.64616 -11.07692,-10.38462 -2.76923,-3.87692 -2.76923,-8.86154 0,-6.50769 3.73846,-12.04615 3.87692,-5.53846 10.24615,-8.86154 6.36923,-3.46154 13.43077,-3.46154 6.23077,0 10.38462,3.18462 4.2923,3.04615 4.2923,7.89231 0,6.36923 -5.4,8.72307 -0.83077,-6.50769 -4.98461,-10.10769 -4.01539,-3.73846 -10.38462,-3.73846 -5.67692,0 -9.96923,3.73846 -4.15384,3.6 -4.15384,8.30769 0,5.81539 7.2,11.49231 l 8.03077,6.50769 q 11.76923,9.27693 11.76923,18.96923 0,7.2 -4.15385,13.56924 -4.01538,6.23076 -11.07692,9.96923 -6.92308,3.73846 -14.67693,3.73846 -12.32307,0 -20.76923,-11.35385 z" />
    </g>
  </g>
</svg>
