<?xml version="1.0" encoding="UTF-8" standalone="no"?>
<svg
   xmlns:dc="http://purl.org/dc/elements/1.1/"
   xmlns:cc="http://creativecommons.org/ns#"
   xmlns:rdf="http://www.w3.org/1999/02/22-rdf-syntax-ns#"
   xmlns:svg="http://www.w3.org/2000/svg"
   xmlns="http://www.w3.org/2000/svg"
   xmlns:xlink="http://www.w3.org/1999/xlink"
   viewBox="0 0 40.135593 40.949154"
   height="40.949154"
   width="40.135593"
   version="1.1"
   id="svg2">
  <metadata
     id="metadata8">
    <rdf:RDF>
      <cc:Work
         rdf:about="">
        <dc:format>image/svg+xml</dc:format>
        <dc:type
           rdf:resource="http://purl.org/dc/dcmitype/StillImage" />
        <dc:title></dc:title>
      </cc:Work>
    </rdf:RDF>
  </metadata>
  <defs
     id="defs6" />
  <image
     y="0"
     x="0"
     id="image10"
     xlink:href="file:///Users/jjolton/DoubleCheck/pencil.png"
     preserveAspectRatio="none"
     height="40.949154"
     width="40.135593" />
  <path
     id="path4138"
     d="m 4.3898305,36.456978 c 0,-0.01714 0.2644645,-1.811672 0.5876988,-3.987847 0.3232344,-2.176175 0.5878,-3.992517 0.5879237,-4.036313 1.255e-4,-0.0438 1.5156751,1.466225 3.367892,3.355604 1.852217,1.889379 3.359531,3.443535 3.349586,3.453681 -0.0099,0.01015 -1.675315,0.273497 -3.7008234,0.585223 -2.0255088,0.311727 -3.7973883,0.587934 -3.9375102,0.613796 -0.1401218,0.02586 -0.2547669,0.033 -0.2547669,0.01586 z M 9.7985798,30.911661 6.3891495,27.43243 15.89261,17.736332 l 9.503461,-9.6960992 0.511725,0.5174566 0.511724,0.5174565 -9.017073,9.2001111 -9.0170743,9.200112 0.4726773,0.477227 0.4726781,0.477227 9.0136469,-9.196096 9.013647,-9.196095 2.449557,2.499211 2.449558,2.49921 -9.484909,9.67742 c -5.2167,5.322579 -9.502753,9.677418 -9.524563,9.677418 -0.02181,0 -1.573899,-1.565653 -3.4490852,-3.47923 z M 29.710142,10.597599 26.301258,7.1189248 27.31616,6.0811469 c 0.690113,-0.7056684 1.166517,-1.1217137 1.488671,-1.3000608 0.435611,-0.2411576 0.530595,-0.262283 1.179279,-0.262283 1.090533,0 1.161798,0.049019 3.418105,2.3510619 2.256916,2.3026639 2.304746,2.3750719 2.303631,3.487392 -0.001,1.007332 -0.168733,1.309776 -1.47473,2.659295 -0.56405,0.582846 -1.045017,1.05972 -1.068817,1.05972 -0.0238,0 -1.57727,-1.565403 -3.452157,-3.478673 z"
     style="fill:#000000;fill-opacity:0;stroke:#ffffff;stroke-opacity:1" />
</svg>
