<?xml version="1.0" encoding="UTF-8" standalone="no"?>
<svg
   xmlns:dc="http://purl.org/dc/elements/1.1/"
   xmlns:cc="http://creativecommons.org/ns#"
   xmlns:rdf="http://www.w3.org/1999/02/22-rdf-syntax-ns#"
   xmlns:svg="http://www.w3.org/2000/svg"
   xmlns="http://www.w3.org/2000/svg"
   viewBox="0 0 345.08386 122.13668"
   height="122.13668"
   width="345.08386"
   version="1.1"
   id="svg2">
  <metadata
     id="metadata8">
    <rdf:RDF>
      <cc:Work
         rdf:about="">
        <dc:format>image/svg+xml</dc:format>
        <dc:type
           rdf:resource="http://purl.org/dc/dcmitype/StillImage" />
        <dc:title></dc:title>
      </cc:Work>
    </rdf:RDF>
  </metadata>
  <defs
     id="defs6" />
  <path
     id="path4138"
     d="m 168.91522,2e-5 c -0.96598,0 -1.86734,0.39567 -2.57617,1.234375 -0.70883,0.838705 -1.26501,2.084877 -1.76758,3.875 -1.00513,3.580246 -1.77957,9.370228 -2.64453,18.46875 -1.96429,20.662281 -3.24007,33.856039 -4.09766,42.214844 -0.85758,8.358802 -1.30706,11.913382 -1.58203,13.166012 -0.15203,0.69258 -0.31648,1.17329 -0.41797,1.30469 -0.0507,0.0657 -0.0399,0.0532 -0.0684,0.0566 -0.0285,0.003 -0.13749,-0.004 -0.33203,-0.0957 -0.77813,-0.36581 -2.55851,-1.95007 -5.8164,-5.03125 -3.14245,-2.972002 -5.46437,-4.770802 -7.16797,-5.417972 -0.8518,-0.32358 -1.64215,-0.36837 -2.21875,0.0742 -0.57661,0.44259 -0.77344,1.20964 -0.77344,2.16602 0,0.4217 0.19117,0.72249 0.44922,1.12109 0.25805,0.398612 0.61553,0.855222 1.05078,1.355472 0.87049,1.00051 2.05484,2.17091 3.36133,3.29102 2.46562,2.11389 6.46902,7.52084 8.71875,11.8457 4.01487,7.7181 6.00387,11.283489 8.13672,14.580069 0.49092,0.75879 1.03986,1.30469 1.70508,1.55664 0.66521,0.25196 1.4065,0.15746 2.11328,-0.21679 1.41355,-0.7485 2.86955,-2.52469 4.69531,-5.40625 1.26729,-2.000159 5.34836,-7.432079 9.00195,-11.966799 3.18934,-3.9585 5.24505,-7.11822 6.18164,-9.57812 0.4683,-1.22995 0.66424,-2.29224 0.53125,-3.21484 -0.13298,-0.92261 -0.63503,-1.68949 -1.42187,-2.17579 -0.56519,-0.349302 -1.29252,-0.248512 -2.02735,0.14844 -0.73482,0.39695 -1.57347,1.09211 -2.60937,2.13086 -2.0718,2.07751 -4.91573,5.54194 -8.88477,10.73828 -1.63404,2.13932 -3.22564,4.02059 -4.45898,5.31445 -0.61667,0.64693 -1.14557,1.14705 -1.52735,1.44922 -0.0755,0.0598 -0.10752,0.072 -0.16992,0.11524 -0.0296,-0.33414 -0.048,-0.8284 -0.0508,-1.46094 -0.006,-1.28028 0.0463,-3.11263 0.15039,-5.34961 0.20824,-4.47397 0.62273,-10.57393 1.19531,-17.212892 1.14618,-13.289703 2.74038,-32.161398 3.54297,-41.939452 0.80204,-9.771153 1.79184,-19.806593 2.17188,-22.148437 0.31622,-1.948662 0.48049,-3.077153 0.11133,-3.935547 C 171.23449,0.627406 170.85642,0.313386 170.42493,0.169884 169.99349,0.02642 169.50809,0 168.91522,0 Z m 0,1 c 0.55353,0 0.95795,0.0402 1.19531,0.119141 0.23737,0.07894 0.30894,0.142074 0.39063,0.332031 0.16338,0.379913 0.13027,1.458751 -0.18164,3.380859 -0.40755,2.511352 -1.37677,12.444662 -2.17969,22.226563 -0.80234,9.774996 -2.39694,28.647494 -3.54297,41.935545 -0.57353,6.649932 -0.99008,12.758442 -1.19922,17.251952 -0.10457,2.24676 -0.15609,4.08899 -0.15039,5.40039 0.003,0.6557 0.0196,1.17721 0.0547,1.56446 0.0175,0.19362 0.0387,0.35167 0.0723,0.49414 0.0168,0.0712 0.0351,0.13764 0.0703,0.21484 0.0352,0.0772 0.0771,0.1809 0.23633,0.2793 0.32326,0.19978 0.5897,0.0778 0.78906,-0.0176 0.19936,-0.0954 0.39318,-0.23091 0.61719,-0.4082 0.44801,-0.35459 0.99744,-0.87838 1.63281,-1.54492 1.27073,-1.33308 2.87691,-3.23315 4.5293,-5.39649 3.95914,-5.18339 6.79703,-8.63135 8.79882,-10.63867 1.0009,-1.00366 1.79667,-1.64462 2.375,-1.95703 0.57834,-0.31242 0.84301,-0.29362 1.02735,-0.17969 0.56805,0.35108 0.8602,0.79699 0.95703,1.46875 0.0968,0.67176 -0.043,1.58318 -0.47461,2.7168 -0.86324,2.26723 -2.87001,5.38786 -6.02735,9.30664 -3.6698,4.55484 -7.72011,9.93375 -9.0664,12.05859 -1.79281,2.829559 -3.2577,4.496959 -4.31836,5.058599 -0.53033,0.28081 -0.91361,0.30774 -1.29297,0.16406 -0.37936,-0.14369 -0.79526,-0.50952 -1.21875,-1.16406 -2.10827,-3.2586 -4.07918,-6.788039 -8.08984,-14.498049 -2.31424,-4.44886 -6.26251,-9.83774 -8.95313,-12.14453 -1.27163,-1.09023 -2.43104,-2.235 -3.25976,-3.1875 -0.41437,-0.47625 -0.74682,-0.905402 -0.96485,-1.242192 -0.21805,-0.33676 -0.28909,-0.62338 -0.28909,-0.5781 0,-0.81181 0.18698,-1.22424 0.38086,-1.37305 0.19387,-0.14881 0.55957,-0.19615 1.25586,0.0684 1.39258,0.52902 3.729,2.27057 6.83594,5.208982 3.26098,3.0841 4.90699,4.65842 6.07812,5.20899 0.29278,0.13764 0.57727,0.21967 0.87695,0.18359 0.29969,-0.0361 0.57332,-0.21886 0.74219,-0.4375 0.33774,-0.43728 0.44511,-0.98844 0.60156,-1.70117 0.30928,-1.40892 0.7414,-4.91439 1.59961,-13.279302 0.85821,-8.364908 2.13331,-21.559687 4.09766,-42.222654 0.86339,-9.081914 1.64833,-14.853871 2.61328,-18.291016 0.48248,-1.718572 1.01349,-2.845413 1.56836,-3.501953 0.55487,-0.656539 1.09064,-0.878906 1.8125,-0.878906 z M 50.489439,1.779317 c -0.183935,-0.02803 -0.452667,0.01321 -0.628906,0.189453 -0.168134,0.168134 -0.216017,0.373918 -0.226562,0.546875 -0.01055,0.172957 0.01234,0.336642 0.05273,0.511719 0.08078,0.350154 0.237034,0.746654 0.453125,1.197265 0.432182,0.901222 1.110397,2.008699 1.947266,3.140625 1.628919,2.20323 5.670911,7.967365 8.958984,12.78125 12.083152,17.690283 16.759922,24.12187 22.384762,30.771485 3.14051,3.712664 8.88068,10.98447 12.73243,16.13086 3.862812,5.16117 8.637672,11.343022 10.636722,13.769532 2.12257,2.57644 4.08989,6.03907 5.34961,9.08984 0.62985,1.52539 1.08173,2.94958 1.29492,4.0918 0.21318,1.14222 0.13517,1.99674 -0.0527,2.30078 -0.051,0.0825 -0.15224,0.16526 -0.59765,0.15039 -0.44541,-0.0149 -1.14713,-0.16782 -2.08789,-0.49023 -1.88152,-0.64482 -4.72795,-1.94712 -8.75,-3.98633 -6.134402,-3.11019 -9.533132,-4.7613 -11.667972,-5.30469 -1.06743,-0.27169 -1.87625,-0.27174 -2.51172,0.084 -0.63548,0.35572 -0.975,0.99228 -1.25977,1.73437 -0.1712,0.44616 -0.15974,0.94745 0.0117,1.42578 0.17146,0.47834 0.487,0.94599 0.9336,1.4375 0.89318,0.98302 2.32581,2.06992 4.36523,3.36328 1.61983,1.02727 3.24164,1.95975 4.5625,2.64063 0.66043,0.34044 1.24604,0.61763 1.72461,0.81445 0.47857,0.19682 0.80093,0.33008 1.17383,0.33008 -0.0407,0 0.36649,0.091 0.851562,0.30859 0.48507,0.21762 1.11977,0.53959 1.84766,0.93946 1.45578,0.799729 3.2909,1.909429 5.14257,3.128899 3.73218,2.45793 8.20431,5.25212 10.00586,6.2461 1.85552,1.02374 4.39482,1.72151 5.99805,1.53711 1.0711,-0.1232 1.92664,-0.5185 2.36328,-1.37696 0.43665,-0.85846 0.50319,-2.02659 0.45117,-3.79882 -0.12727,-4.33606 -2.67737,-14.005309 -5.53125,-22.824219 -1.42693,-4.40946 -2.92938,-8.58472 -4.2539,-11.726562 -0.66226,-1.57093 -1.27917,-2.88235 -1.82813,-3.84766 -0.27448,-0.48266 -0.53115,-0.8778 -0.78125,-1.18555 -0.2501,-0.30774 -0.4756,-0.5469 -0.82812,-0.6582 -0.36775,-0.11611 -0.68444,-0.18785 -1.01758,-0.13477 -0.33314,0.0531 -0.67044,0.33287 -0.7793,0.66016 -0.21772,0.65457 -0.003,1.3732 0.36328,2.5293 0.50102,1.58003 1.22031,4.899672 1.57032,7.275392 l 0.4414,2.99414 -2.41211,-2.1875 C 109.09649,74.750861 104.39058,69.092059 100.60272,63.953149 96.792498,58.783899 90.812548,51.19299 87.286308,47.050801 80.641708,39.245505 72.920008,29.401888 65.182799,18.869161 61.289545,13.569244 57.829311,9.166885 55.237486,6.169942 53.941574,4.671471 52.865928,3.526951 52.044127,2.783223 51.633227,2.411359 51.290703,2.13879 50.977721,1.962911 50.82123,1.874971 50.673375,1.807351 50.489439,1.779317 Z m 0.263672,1.263672 c 0.181119,0.127929 0.351997,0.238704 0.619141,0.480469 0.763885,0.691314 1.825935,1.818989 3.107422,3.300781 2.562974,2.963583 6.01622,7.351826 9.898437,12.636719 7.749117,10.548934 15.480717,20.408133 22.146487,28.238281 3.49696,4.107811 9.48237,11.704402 13.27343,16.84766 3.813422,5.17358 8.426592,10.764782 10.421882,12.574222 l 4.48047,4.06249 -0.84766,-5.75585 c -0.359,-2.436792 -1.06906,-5.735802 -1.60742,-7.433602 -0.34844,-1.09884 -0.39622,-1.78773 -0.36524,-1.89453 0.0619,-0.007 0.25554,0.004 0.54493,0.0957 -0.012,-0.004 0.15913,0.0968 0.35351,0.33594 0.19438,0.23918 0.42995,0.59595 0.6875,1.04883 0.5151,0.90576 1.12213,2.1926 1.77539,3.74218 1.30653,3.099172 2.80413,7.256982 4.22461,11.646492 2.84096,8.77902 5.36574,18.571589 5.48242,22.546869 0.0506,1.72428 -0.0685,2.77322 -0.34375,3.31446 -0.27529,0.54123 -0.65707,0.72932 -1.58398,0.83594 -1.14677,0.13189 -3.73754,-0.5014 -5.40234,-1.41993 -1.71879,-0.9483 -6.22138,-3.75772 -9.9375,-6.20507 -1.87248,-1.23318 -3.72609,-2.353149 -5.2129,-3.169929 -0.7434,-0.40839 -1.39349,-0.73931 -1.91796,-0.97461 -0.52448,-0.23529 -0.850772,-0.39648 -1.261722,-0.39648 0.003,0 -0.35784,-0.0761 -0.79492,-0.25586 -0.43708,-0.17976 -1.00124,-0.44574 -1.64454,-0.77734 -1.28658,-0.66322 -2.89048,-1.58561 -4.48632,-2.59766 -2.00289,-1.27019 -3.38127,-2.33223 -4.16016,-3.18945 -0.38945,-0.42861 -0.62486,-0.80345 -0.73242,-1.10352 -0.10756,-0.30006 -0.10265,-0.51388 -0.0195,-0.73047 0.25637,-0.66809 0.49948,-1.04438 0.81445,-1.2207 0.31497,-0.17632 0.82624,-0.22841 1.77734,0.0137 1.9022,0.48417 5.33533,2.12179 11.462892,5.22852 4.03821,2.0474 6.89862,3.36106 8.87696,4.03906 0.98917,0.339 1.754,0.52406 2.3789,0.54492 0.62491,0.0209 1.19574,-0.16114 1.48243,-0.625 0.45962,-0.74368 0.41784,-1.76515 0.18554,-3.00976 -0.2323,-1.24462 -0.70665,-2.71973 -1.35547,-4.29102 -1.29762,-3.14259 -3.29341,-6.66297 -5.50195,-9.34375 -1.96567,-2.38599 -6.75198,-8.579142 -10.607422,-13.730472 C 93.097538,61.285079 87.362698,54.01688 84.194518,50.271504 78.598398,43.655849 73.949328,37.268245 61.870299,19.584004 58.576783,14.76215 54.546311,9.009371 52.891783,6.771504 52.08693,5.682881 51.433113,4.61228 51.040221,3.792989 50.891425,3.482707 50.821089,3.258324 50.753111,3.042989 Z M 268.98163,6.867208 c -0.51265,0.05475 -1.05348,0.251 -1.58594,0.580078 -0.25208,0.155795 -0.47742,0.384934 -0.81055,0.740234 -0.33312,0.3553 -0.74424,0.826592 -1.23047,1.40625 -0.97245,1.159315 -2.24279,2.753011 -3.75,4.695312 -3.01442,3.884603 -6.97199,9.161112 -11.34179,15.107422 -8.73961,11.892622 -19.12636,26.462247 -26.89649,37.904295 -3.77128,5.55347 -7.36121,10.701072 -10.10547,14.519532 -1.37213,1.90923 -2.53317,3.48614 -3.39648,4.61133 -0.43166,0.5626 -0.79024,1.01423 -1.05859,1.33203 -0.1929,0.22844 -0.26003,0.28753 -0.32227,0.35156 -0.0285,-0.0683 -0.0432,-0.0701 -0.0703,-0.21289 -0.10192,-0.53636 -0.11826,-1.49828 -0.0293,-2.68164 0.17792,-2.36672 0.75406,-5.66019 1.64648,-8.79492 0.23293,-0.81818 0.33694,-1.43757 0.0547,-1.97851 -0.14112,-0.27048 -0.43054,-0.48 -0.72851,-0.53516 -0.29797,-0.0552 -0.59129,-8.2e-4 -0.9043,0.10352 -0.61096,0.20365 -1.17683,0.5144 -1.66992,1.05078 -0.49309,0.53637 -0.9157,1.27625 -1.35156,2.34765 -0.87172,2.1428 -1.80942,5.64987 -3.31055,11.7168 -1.44473,5.839 -3.29138,12.929759 -4.09375,15.726559 -0.41344,1.44108 -0.69647,2.97939 -0.82227,4.31641 -0.1258,1.33701 -0.12867,2.43676 0.16016,3.18945 0.33782,0.88034 0.90756,1.57556 1.74805,1.92969 0.84048,0.35412 1.89187,0.3797 3.23046,0.14062 2.67719,-0.47815 6.58684,-2.03841 12.53321,-4.80273 7.30962,-3.39807 10.96432,-5.0953 12.85937,-6.23438 0.94753,-0.56953 1.48082,-1.0049 1.78516,-1.51367 0.30434,-0.50876 0.30664,-1.01992 0.30664,-1.51953 0,-0.964209 -0.47102,-1.778659 -1.29102,-2.160159 -0.81999,-0.38149 -1.89999,-0.40927 -3.27148,-0.19335 -2.74298,0.43184 -6.70169,1.89818 -11.91992,4.384759 -2.86858,1.36693 -5.51707,2.56884 -7.4668,3.40235 -0.97486,0.41675 -1.77579,0.7429 -2.33398,0.94726 -0.20455,0.0749 -0.33369,0.11409 -0.46485,0.1543 -0.0607,-0.13484 -0.14322,-0.247 -0.0664,-0.50196 0.10967,-0.36401 0.40274,-0.83644 0.82422,-1.2871 0.84294,-0.90133 2.18997,-1.71258 3.375,-1.85352 1.27813,-0.15201 2.40737,-0.67332 3.43945,-1.65625 1.03208,-0.98293 1.98583,-2.408769 3.04297,-4.414059 4.48292,-8.50371 24.06222,-38.661712 31.74804,-48.88477 6.72459,-8.944491 13.26792,-18.053236 18.13282,-25.144531 2.43244,-3.545647 4.44616,-6.585883 5.85547,-8.855469 0.70465,-1.134793 1.25727,-2.075337 1.64062,-2.798828 0.19168,-0.361746 0.3409,-0.669292 0.44727,-0.927734 0.10636,-0.258442 0.18359,-0.441416 0.18359,-0.703125 0,-1.256359 -0.46499,-2.261277 -1.30469,-2.734375 -0.41985,-0.23655 -0.90336,-0.324282 -1.41601,-0.269531 z m 0.0859,0.990234 c 0.33255,-0.03797 0.61432,0.02332 0.83985,0.15039 0.45106,0.254137 0.79492,0.843993 0.79492,1.863282 0,-0.04745 -0.0229,0.112109 -0.10938,0.322265 -0.0865,0.210157 -0.22196,0.495723 -0.40429,0.839844 -0.36467,0.688242 -0.90975,1.616677 -1.60742,2.740235 -1.39535,2.247114 -3.40296,5.280468 -5.83008,8.818359 -4.85425,7.075781 -11.39156,16.174542 -18.10742,25.107422 -7.76254,10.325082 -27.24707,40.318552 -31.83399,49.019532 -1.03204,1.95769 -1.94465,3.296239 -2.84765,4.156249 -0.90301,0.86001 -1.77769,1.25909 -2.86719,1.38867 -1.52168,0.18098 -2.99641,1.10154 -3.98828,2.16211 -0.49594,0.53029 -0.87464,1.09699 -1.05078,1.68164 -0.17614,0.58466 -0.11111,1.25804 0.34375,1.71289 0.13574,0.13574 0.25302,0.14576 0.32617,0.1543 0.0731,0.009 0.12315,0.005 0.16992,0 0.0935,-0.01 0.17413,-0.0294 0.26953,-0.0547 0.1908,-0.0507 0.42822,-0.13048 0.72266,-0.23828 0.58888,-0.21559 1.40058,-0.54411 2.38476,-0.96484 1.96836,-0.84148 4.62516,-2.04815 7.50391,-3.41992 5.17781,-2.46732 9.10325,-3.898749 11.64453,-4.298829 1.27064,-0.20005 2.18151,-0.1268 2.69336,0.11133 0.51184,0.23812 0.71289,0.55952 0.71289,1.253899 0,0.49599 -0.003,0.73735 -0.16406,1.00586 -0.16063,0.26851 -0.55267,0.63455 -1.44336,1.16992 -1.78139,1.07075 -5.4561,2.78752 -12.76563,6.18555 -5.92393,2.75389 -9.81998,4.28397 -12.28711,4.72461 -1.23356,0.22032 -2.09046,0.16438 -2.66601,-0.0781 -0.57556,-0.2425 -0.93077,-0.65743 -1.20313,-1.36718 -0.14728,-0.38382 -0.217,-1.46788 -0.0976,-2.73633 0.11935,-1.26846 0.39247,-2.75728 0.78711,-4.13281 0.81375,-2.83646 2.65644,-9.917129 4.10351,-15.765629 1.49926,-6.05936 2.4459,-9.55833 3.26758,-11.57812 0.41084,-1.0099 0.7865,-1.64238 1.16016,-2.04883 0.37365,-0.40645 0.74297,-0.61029 1.25,-0.7793 0.21643,-0.0721 0.36022,-0.0749 0.40625,-0.0664 0.046,0.009 0.007,-0.0174 0.0234,0.0137 0.0325,0.0623 0.077,0.51899 -0.1289,1.24219 -0.91172,3.20249 -1.49689,6.53451 -1.68164,8.99219 -0.0924,1.22884 -0.093,2.22801 0.043,2.94336 0.068,0.35768 0.14767,0.65789 0.39453,0.91211 0.12343,0.12711 0.3172,0.23423 0.52148,0.24805 0.20428,0.0138 0.38744,-0.0552 0.53516,-0.14649 0.26989,-0.1668 0.40173,-0.35494 0.6875,-0.69336 0.28576,-0.33842 0.65068,-0.79735 1.08789,-1.36718 0.87441,-1.13967 2.03824,-2.72236 3.41406,-4.63672 2.75164,-3.82873 6.34548,-8.98312 10.12109,-14.542982 7.75907,-11.425749 18.14423,-25.987827 26.87696,-37.87109 4.36636,-5.941631 8.31882,-11.214909 11.32422,-15.08789 1.5027,-1.936491 2.76845,-3.523801 3.72656,-4.666016 0.47905,-0.571107 0.88303,-1.030215 1.19531,-1.363281 0.31228,-0.333066 0.56537,-0.549437 0.60547,-0.574219 0.43062,-0.266136 0.81394,-0.403437 1.14648,-0.441406 z M 0.75115793,21.347676 c -0.318737,0.123004 -0.581407,0.412331 -0.68164,0.740235 -0.100234,0.327903 -0.083,0.675955 -0.0059,1.068359 0.308542,1.569614 1.65349997,4.047252 4.07617197,7.886719 2.720363,4.31125 7.5749171,12.209468 10.7792971,17.541015 6.251162,10.400873 25.078661,37.592847 32.998047,47.658207 2.610045,3.3173 4.939576,6.686899 6.507812,9.308589 0.784119,1.31085 1.377291,2.43775 1.716797,3.25586 0.169753,0.40906 0.274254,0.74472 0.310547,0.95703 0.0044,0.0256 0.0062,-0.005 0.0078,0.0156 -0.132665,-0.009 -0.282865,-0.0216 -0.503906,-0.0547 -0.544799,-0.0816 -1.31876,-0.23407 -2.242187,-0.43945 -1.846855,-0.41078 -4.299685,-1.03126 -6.826172,-1.71875 -2.526487,-0.68749 -5.129298,-1.44296 -7.283203,-2.1211 -2.153906,-0.67814 -3.887353,-1.2989 -4.550782,-1.64258 -0.655047,-0.33933 -1.815186,-0.68384 -3.269531,-1.03711 -1.454344,-0.35326 -3.174773,-0.69435 -4.822265,-0.9414 -2.638889,-0.39573 -4.086128,-0.59518 -5.056641,-0.36133 -0.485257,0.11693 -0.900423,0.45139 -1.035156,0.88672 -0.134733,0.43533 -0.07036,0.87353 0.03125,1.39062 0.269971,1.37387 0.962113,2.45843 2.416015,3.32227 1.453903,0.86384 3.650246,1.5871 7.13086,2.52148 11.277878,3.02759 25.35096,7.61087 30.550781,9.9336 l 0.703125,0.31445 0,-0.043 c 3.459311,1.49579 6.13268,2.34301 8,2.34766 1.003571,0.002 1.833444,-0.22834 2.41211,-0.76758 0.57872,-0.53917 0.83794,-1.34204 0.83794,-2.28118 0,-0.92604 -0.33358,-2.40977 -0.875,-4.3457 -0.541415,-1.93594 -1.298543,-4.28499 -2.173826,-6.76953 -1.750567,-4.96909 -3.967093,-10.471159 -5.861328,-14.249999 -1.396247,-2.78541 -3.490988,-5.85219 -5.478516,-8.2461 -0.993764,-1.19695 -1.959939,-2.22374 -2.810547,-2.96679 -0.850607,-0.74305 -1.523843,-1.25977 -2.285156,-1.25977 -0.355653,0 -0.69894,0.12751 -0.947266,0.35156 -0.248326,0.22406 -0.399593,0.52107 -0.490234,0.8418 -0.181281,0.64146 -0.143615,1.41094 0.0293,2.25 0.345824,1.67812 1.260464,3.63156 2.617187,4.98828 1.302701,1.3027 3.30193,4.71947 4.769532,7.875 0.7338,1.57777 1.346802,3.100429 1.705078,4.267579 0.03723,0.12128 0.03683,0.18363 0.06836,0.29687 -0.264313,-0.4527 -0.623215,-0.98883 -1.068359,-1.59765 -0.911116,-1.246129 -2.156885,-2.769219 -3.529297,-4.281249 -5.745295,-6.32978 -19.989815,-26.321412 -38.390625,-53.933597 -3.62998,-5.447134 -7.1272,-10.473505 -9.8437501,-14.191406 -1.358275,-1.858951 -2.520015,-3.390939 -3.410156,-4.488282 -0.445071,-0.548671 -0.823094,-0.988211 -1.128907,-1.3125 -0.152906,-0.162144 -0.285934,-0.294592 -0.410156,-0.402344 -0.124222,-0.107751 -0.222083,-0.194045 -0.398437,-0.261718 -0.94038,-0.360858 -1.651588,-0.550696 -2.28906297,-0.304688 z m 0.36132797,0.931641 c 0.134937,-0.05207 0.713083,-0.02231 1.570313,0.306641 -0.05486,-0.02105 0.01493,0.0086 0.09961,0.08203 0.08468,0.07345 0.201551,0.187336 0.339844,0.333984 0.276585,0.293296 0.642288,0.720525 1.078125,1.257813 0.871674,1.074576 2.026674,2.596586 3.378906,4.447265 2.7044641,3.701359 6.1972941,8.719562 9.8203131,14.15625 18.409221,27.624809 32.58738,47.557981 38.482422,54.052741 1.350391,1.48777 2.57943,2.98896 3.46289,4.197259 0.44173,0.60415 0.796082,1.13524 1.033203,1.54492 0.237121,0.40969 0.324219,0.76674 0.324219,0.69141 0,0.43006 0.04115,0.79137 0.337891,1.08984 0.148373,0.14924 0.408615,0.25052 0.636718,0.2168 0.228104,-0.0337 0.396547,-0.15436 0.535157,-0.29297 0.354237,-0.35424 0.314968,-0.76466 0.265625,-1.21875 -0.04934,-0.45409 -0.17902,-0.99393 -0.369141,-1.61328 -0.380242,-1.23871 -1.006303,-2.789039 -1.753906,-4.396479 -1.495208,-3.21489 -3.428688,-6.61815 -4.970703,-8.16016 -1.169646,-1.16965 -2.038926,-3.00521 -2.34375,-4.48438 -0.152413,-0.73958 -0.157528,-1.39076 -0.04883,-1.77539 0.05435,-0.19231 0.130432,-0.30903 0.199219,-0.37109 0.06879,-0.0621 0.131563,-0.0937 0.277344,-0.0937 0.139179,0 0.838744,0.32318 1.626953,1.01172 0.788209,0.68854 1.729451,1.68546 2.699219,2.85351 1.939536,2.33611 4.005494,5.36745 5.353515,8.05665 1.859836,3.71022 4.073031,9.195219 5.8125,14.132809 0.869735,2.46879 1.62158,4.8022 2.154297,6.70703 0.532719,1.90478 0.837889,3.41862 0.837889,4.07612 0,0.76384 -0.18687,1.23884 -0.519529,1.54883 -0.332656,0.30999 -0.87803,0.50212 -1.728516,0.5 -1.700971,-0.004 -4.491383,-0.83244 -8.298828,-2.5332 l -0.703125,-0.31446 0,0.0606 c -5.663279,-2.4416 -18.979159,-6.77489 -29.996094,-9.73242 -3.455997,-0.92778 -5.600107,-1.65426 -6.878906,-2.41407 -1.278799,-0.7598 -1.712645,-1.47221 -1.945312,-2.65624 -0.09139,-0.4651 -0.09392,-0.78188 -0.05664,-0.90235 0.03728,-0.12047 0.03527,-0.14366 0.314453,-0.21094 0.558362,-0.13454 2.04977,-0.0146 4.673828,0.37891 1.614692,0.24214 3.312273,0.58034 4.734375,0.92578 1.422103,0.34544 2.597889,0.7196 3.044922,0.95117 0.839645,0.43497 2.541537,1.02535 4.712891,1.70899 2.171354,0.68363 4.782896,1.44234 7.320312,2.13281 2.537417,0.69047 4.998944,1.31407 6.871094,1.73047 0.936075,0.2082 1.722733,0.36316 2.310547,0.45117 0.293907,0.044 0.535215,0.0718 0.738281,0.0781 0.101533,0.003 0.193953,0.003 0.292969,-0.0117 0.09902,-0.0143 0.21972,-0.0127 0.386719,-0.17969 0.303643,-0.30365 0.270924,-0.66636 0.21289,-1.00586 -0.05803,-0.3395 -0.186755,-0.72101 -0.373047,-1.16992 -0.372583,-0.89782 -0.984118,-2.05085 -1.783203,-3.38672 -1.598171,-2.67174 -3.943366,-6.065349 -6.578125,-9.414059 C 40.850179,85.640681 21.967041,58.368309 15.776549,48.068379 12.567163,42.728503 7.7136059,34.831302 4.9855329,30.507832 c -2.405452,-3.812177 -3.707416,-6.352618 -3.941406,-7.542968 -0.0585,-0.297588 -0.04574,-0.498248 -0.01953,-0.583985 0.02621,-0.08574 0.02042,-0.07552 0.08789,-0.101562 z m 342.6308641,2.9375 c -0.35407,-0.06973 -0.7761,-0.03054 -1.2461,0.167969 -0.94,0.397014 -2.20658,1.366014 -4.66211,3.5625 -4.91105,4.39297 -14.49197,13.72668 -34.48047,33.132813 -12.70953,12.339252 -27.51,25.746032 -32.76562,29.701172 -4.75589,3.57907 -7.38813,5.6432 -8.69336,7.11523 -0.65262,0.73602 -1.0069,1.353789 -1.01953,1.998049 -0.0126,0.64426 0.34924,1.1676 0.80664,1.625 0.57119,0.57121 1.39261,0.98047 2.16211,0.98047 0.31468,0 0.59131,-0.10654 0.93164,-0.26367 0.34033,-0.15713 0.73108,-0.37806 1.18164,-0.66211 0.90111,-0.5681 2.03755,-1.38635 3.38281,-2.42578 2.69053,-2.078859 6.21481,-5.038779 10.27735,-8.593749 8.12507,-7.10995 18.39773,-16.59881 28.3789,-26.134772 9.98117,-9.535954 19.6688,-19.117231 26.625,-26.416013 3.4781,-3.649391 6.27253,-6.725286 8.08789,-8.953125 0.90768,-1.113919 1.5691,-2.010416 1.96289,-2.693359 0.1969,-0.341471 0.33283,-0.622079 0.38868,-0.916016 0.0279,-0.146968 0.0391,-0.306944 -0.0254,-0.488281 -0.0645,-0.181337 -0.23803,-0.35628 -0.41406,-0.423828 -0.26903,-0.103236 -0.52484,-0.242774 -0.8789,-0.3125 z m -0.19336,0.980469 c 0.11346,0.02234 0.30308,0.104704 0.47656,0.175781 -0.0352,0.108311 -0.0843,0.247809 -0.2207,0.484375 -0.33868,0.587355 -0.9798,1.466725 -1.8711,2.560547 -1.7826,2.187644 -4.56624,5.256731 -8.03515,8.896484 -6.93783,7.279507 -16.62082,16.854723 -26.59375,26.382816 -9.97294,9.528092 -20.2381,19.010802 -28.34571,26.105462 -4.0538,3.54734 -7.56903,6.49832 -10.23047,8.55469 -1.33071,1.028189 -2.45017,1.832369 -3.30468,2.371099 -0.42726,0.26936 -0.78962,0.47286 -1.06836,0.60156 -0.27875,0.1287 -0.48518,0.16992 -0.51172,0.16992 -0.30354,0 -1.10963,-0.34205 -1.45508,-0.6875 -0.38069,-0.38069 -0.51892,-0.6309 -0.51367,-0.89844 0.005,-0.26754 0.18524,-0.69871 0.76758,-1.355469 1.16467,-1.3135 3.79787,-3.40463 8.54687,-6.97851 5.40062,-4.06426 20.13141,-17.42412 32.85938,-29.781252 19.98887,-19.406504 29.5832,-28.752989 34.45117,-33.107423 2.43398,-2.177217 3.70845,-3.09912 4.38476,-3.384765 0.33816,-0.142823 0.49372,-0.142922 0.66407,-0.109375 z m -77.41797,53.802735 c -0.47439,0 -0.74589,0.27207 -1.06641,0.5957 -0.32051,0.32363 -0.65928,0.76034 -1.01758,1.29102 -0.71659,1.06135 -1.5006,2.49827 -2.20117,4.08203 -1.38161,3.12336 -4.8554,9.37035 -8.32617,15.195309 -1.73538,2.91248 -3.47262,5.72466 -4.95117,8.00196 -1.47855,2.27729 -2.71828,4.03584 -3.37696,4.76367 -0.54788,0.60541 -1.03309,1.33394 -1.39062,2.04297 -0.35753,0.70902 -0.59961,1.37779 -0.59961,1.98242 0,0.39716 0.13263,0.80509 0.42773,1.08789 0.29511,0.2828 0.69427,0.42776 1.16993,0.50195 0.95131,0.14838 2.29632,0.0365 4.28906,-0.26562 8.67035,-1.31442 32.83601,-6.05411 45.66016,-8.95313 1.72935,-0.39093 2.85975,-1.53275 3.10937,-2.8125 0.24962,-1.27975 -0.47066,-2.65251 -2.04297,-3.25586 -0.27211,-0.10442 -0.5151,-0.10086 -0.86328,-0.0957 -0.34818,0.005 -0.77684,0.0355 -1.28516,0.0898 -1.01662,0.10868 -2.34929,0.31084 -3.91406,0.58789 -3.12953,0.55411 -7.18522,1.41269 -11.42187,2.44336 -9.48438,2.3073 -15.97918,3.75078 -20.07813,4.4336 -2.04947,0.3414 -3.50592,0.49006 -4.39453,0.46875 -0.4443,-0.0107 -0.74806,-0.0722 -0.87109,-0.125 -0.12304,-0.0528 -0.0352,0.02 -0.0352,0.0391 0,0.056 0.0113,-0.0621 0.0625,-0.21094 0.0512,-0.14885 0.13276,-0.35241 0.24023,-0.5957 0.21495,-0.48659 0.53251,-1.13481 0.92579,-1.88867 0.78655,-1.50773 1.87589,-3.44358 3.07421,-5.4336 1.20518,-2.0014 2.30139,-3.87551 3.09766,-5.285149 0.39813,-0.70482 0.72048,-1.29141 0.94727,-1.72657 0.11339,-0.21757 0.20259,-0.39656 0.26757,-0.53906 0.0325,-0.0713 0.0598,-0.13248 0.082,-0.19336 0.0223,-0.0609 0.0527,-0.0878 0.0527,-0.25976 0,0.0945 -0.008,0.0735 -0.002,0.0527 0.006,-0.0207 0.0186,-0.061 0.0371,-0.11328 0.0371,-0.10449 0.0963,-0.25655 0.17382,-0.44531 0.1551,-0.37754 0.38415,-0.9037 0.66602,-1.53125 0.56374,-1.2551 1.34351,-2.92529 2.20117,-4.70313 1.73472,-3.5959 2.67984,-5.70741 2.9668,-7.06054 0.14348,-0.67657 0.14022,-1.24172 -0.20117,-1.66211 -0.34122,-0.42037 -0.86959,-0.50388 -1.41194,-0.50388 z m 0,1 c 0.42812,0 0.59335,0.0814 0.63672,0.13477 0.0434,0.0534 0.11542,0.27075 -0.002,0.82421 -0.23474,1.10694 -1.16179,3.25029 -2.89062,6.83399 -0.86109,1.78496 -1.64382,3.46152 -2.21289,4.72851 -0.28454,0.6335 -0.51545,1.16356 -0.67774,1.5586 -0.0811,0.19752 -0.14487,0.36104 -0.1914,0.49219 -0.0233,0.0656 -0.041,0.12189 -0.0566,0.17773 -0.0156,0.0558 -0.0352,0.0893 -0.0352,0.2168 0,-0.13898 0.0155,-0.1051 0.008,-0.084 -0.008,0.0211 -0.0267,0.064 -0.0527,0.1211 -0.0521,0.11421 -0.13537,0.28348 -0.24414,0.49218 -0.21755,0.41742 -0.53681,1.00024 -0.93164,1.69922 -0.78967,1.39796 -1.88096,3.265189 -3.08203,5.259769 -1.20793,2.00595 -2.30609,3.95402 -3.10547,5.48633 -0.39969,0.76615 -0.72374,1.42799 -0.95313,1.94726 -0.11469,0.25964 -0.20567,0.48269 -0.27148,0.67383 -0.0658,0.19114 -0.11719,0.32699 -0.11719,0.53711 0,0.3829 0.30563,0.73512 0.64062,0.87891 0.335,0.14378 0.7299,0.19478 1.24024,0.20703 1.02067,0.0245 2.5063,-0.13632 4.58398,-0.48243 4.15536,-0.6922 10.65734,-2.1398 20.15039,-4.44921 4.21814,-1.02617 8.25844,-1.88065 11.35938,-2.42969 1.55047,-0.27452 2.86714,-0.47351 3.8457,-0.57813 0.48928,-0.0523 0.89445,-0.0795 1.19336,-0.084 0.29891,-0.004 0.51471,0.0379 0.49219,0.0293 1.22544,0.47024 1.57999,1.30021 1.41797,2.13086 -0.16202,0.83064 -0.92919,1.70712 -2.34571,2.02734 -12.78911,2.8911 -36.99981,7.63916 -45.58984,8.94141 -1.95861,0.29692 -3.26923,0.37747 -3.98633,0.26562 -0.35855,-0.0559 -0.54727,-0.15623 -0.63086,-0.23633 -0.0836,-0.0801 -0.12109,-0.15473 -0.12109,-0.36523 0,-0.29405 0.17519,-0.90261 0.49219,-1.53125 0.31699,-0.62864 0.7647,-1.2968 1.24023,-1.82227 0.77047,-0.85135 1.98411,-2.59793 3.47266,-4.89062 1.48854,-2.29269 3.232,-5.11384 4.97265,-8.03516 3.48131,-5.842639 6.9487,-12.065099 8.38086,-15.302729 0.67909,-1.5352 1.4439,-2.93342 2.11524,-3.92774 0.33566,-0.49716 0.6505,-0.89417 0.90039,-1.14648 0.2497,-0.25229 0.4666,-0.2988 0.35529,-0.2988 z m -203.300784,23.742189 -1.017578,3.69922 c -0.352461,1.28212 -0.50242,2.33113 -0.414062,3.19726 0.08836,0.86613 0.457581,1.58126 1.103515,1.98047 0.576719,0.35643 1.040548,0.59468 1.519531,0.64453 0.239492,0.0249 0.501488,-0.0112 0.722657,-0.15039 0.221168,-0.13922 0.370297,-0.36127 0.453125,-0.59375 0.165654,-0.46497 0.153865,-1.01449 0.06836,-1.75976 -0.0855,-0.74528 -0.264386,-1.68095 -0.527344,-2.84375 l -0.939453,-4.1504 -0.96875,-0.0234 z m 0.433594,2.18945 0.498047,2.20508 c 0.258927,1.14498 0.43157,2.05477 0.509765,2.73633 0.0782,0.68156 0.04303,1.14042 -0.01758,1.31054 -0.0303,0.0851 -0.0456,0.0869 -0.04102,0.084 0.0046,-0.003 -0.0034,0.0108 -0.08789,0.002 -0.169027,-0.0176 -0.572835,-0.17564 -1.097656,-0.5 -0.358349,-0.22147 -0.566992,-0.56807 -0.634766,-1.23242 -0.06777,-0.66435 0.04899,-1.61574 0.382813,-2.83008 l 0.488281,-1.77539 z"
     style="color:#000000;font-style:normal;font-variant:normal;font-weight:normal;font-stretch:normal;font-size:medium;line-height:normal;font-family:sans-serif;text-indent:0;text-align:start;text-decoration:none;text-decoration-line:none;text-decoration-style:solid;text-decoration-color:#000000;letter-spacing:normal;word-spacing:normal;text-transform:none;direction:ltr;block-progression:tb;writing-mode:lr-tb;baseline-shift:baseline;text-anchor:start;white-space:normal;clip-rule:nonzero;display:inline;overflow:visible;visibility:visible;opacity:1;isolation:auto;mix-blend-mode:normal;color-interpolation:sRGB;color-interpolation-filters:linearRGB;solid-color:#000000;solid-opacity:1;fill-opacity:1;fill-rule:nonzero;stroke:#000000;stroke-width:1;stroke-linecap:butt;stroke-linejoin:miter;stroke-miterlimit:4;stroke-dasharray:none;stroke-dashoffset:0;stroke-opacity:1;color-rendering:auto;image-rendering:auto;shape-rendering:auto;text-rendering:auto;enable-background:accumulate" />
</svg>
